<?xml version="1.0" standalone="no"?><!DOCTYPE svg PUBLIC "-//W3C//DTD SVG 1.1//EN" "http://www.w3.org/Graphics/SVG/1.1/DTD/svg11.dtd"><svg t="1499759138011" class="icon" style="" viewBox="0 0 1024 1024" version="1.1" xmlns="http://www.w3.org/2000/svg" p-id="3124" xmlns:xlink="http://www.w3.org/1999/xlink" width="32" height="32"><defs><style type="text/css"></style></defs><path d="M883.076 139.323C834.681 90.934 770.33 64.28 701.894 64.28s-132.787 26.654-181.185 75.043l-383.787 383.65c-99.896 99.887-99.896 262.414 0 362.3 48.397 48.384 112.748 75.008 181.185 75.008 68.442 0 132.788-26.624 181.202-75.008l383.768-383.684c99.899-99.888 99.899-262.385-0.001-362.266zM456.347 842.324c-36.921 36.91-86.017 57.244-138.24 57.244-52.226 0-101.301-20.334-138.222-57.244-76.231-76.215-76.231-200.197 0-276.396l170.406-170.354 276.456 276.387-170.4 170.363z m383.768-383.671L669.703 629.005 393.244 352.637l170.42-170.383c36.928-36.909 86.005-57.23 138.229-57.23 52.224 0 101.302 20.322 138.222 57.23 76.229 76.207 76.229 200.19 0 276.399z" fill="#55e90e" p-id="3125"></path><path d="M772.408 200.406c-38.539-25.846-105.578-28.307-146.621 12.736-9.361 9.36-9.361 24.55 0 33.91a23.975 23.975 0 0 0 16.957 7.008 23.9 23.9 0 0 0 16.953-7.024c22.09-22.102 63.634-21.833 86.016-6.803 10.955 7.346 25.873 4.431 33.271-6.572 7.373-10.998 4.434-25.889-6.576-33.255z" fill="#55e90e" p-id="3126"></path></svg>