<?xml version="1.0" standalone="no"?><!DOCTYPE svg PUBLIC "-//W3C//DTD SVG 1.1//EN" "http://www.w3.org/Graphics/SVG/1.1/DTD/svg11.dtd"><svg t="1499758914331" class="icon" style="" viewBox="0 0 1024 1024" version="1.1" xmlns="http://www.w3.org/2000/svg" p-id="2729" xmlns:xlink="http://www.w3.org/1999/xlink" width="32" height="32"><defs><style type="text/css"></style></defs><path d="M182.89 307.139s-9.062 592.898-91.911 611.345h483.835c-82.527-85.763-110.035-611.345-110.035-611.345h-281.886zM258.298 173.478c6.473-6.473 14.563-9.709 23.301-12.299 17.476-5.178 37.866-5.825 58.254-5.825h15.534c5.178 0 6.796-0.324 10.356-0.647 2.913-0.324 6.149-0.647 9.062-1.295 11.975-2.266 24.272-5.178 36.895-13.593 5.825-4.208 12.946-11.651 14.563-21.684 1.618-9.709-2.266-17.476-6.149-22.977-8.414-10.356-18.124-16.506-29.127-21.037 5.178 10.356 11.004 20.065 12.946 29.127 0.971 4.208 0.324 8.091-0.971 8.738-0.971 0.647-2.589 1.618-6.149 2.913-6.473 2.266-16.506 3.561-25.89 3.884l-7.443 0.324h-6.149c-5.825-0.324-11.651-0.647-17.476-0.647-22.977 0.324-47.574 3.237-70.229 16.506-11.004 6.473-21.36 16.506-26.539 29.127-4.854 12.622-4.208 26.214 1.618 36.247 1.942-11.651 6.796-21.037 13.593-26.862zM605.233 184.805c-7.12-16.506-18.124-28.48-30.422-39.161 5.501 14.887 11.651 29.775 12.946 43.691 0.647 6.796-0.647 12.622-3.237 15.211-2.266 2.589-6.149 4.53-11.975 5.825-11.327 1.942-26.214 1.618-40.13-0.647l-10.681-1.618c-3.237-0.647-8.091-1.618-9.386-1.942-7.767-2.266-15.858-4.208-23.626-5.825-31.715-6.796-66.021-9.709-100.003 0-16.829 5.178-33.334 14.887-44.338 29.127-10.681 14.563-14.887 32.687-11.327 48.545 4.53-15.534 13.268-28.157 24.272-35.923 11.004-8.414 23.949-11.975 37.541-13.593 27.509-3.237 56.959 1.618 86.086 7.767 7.443 1.618 14.563 3.237 22.006 5.178 6.473 1.295 9.062 1.618 13.593 2.266 4.208 0.324 8.414 0.971 12.622 0.971 16.829 0.324 34.305 0.647 52.753-6.796 8.738-3.561 19.419-10.356 24.272-22.006 4.53-11.975 2.266-22.977-0.971-31.069z" p-id="2730" fill="#0996ef"></path><path d="M592.612 539.833s-5.501 361.177-55.989 372.502h294.831c-50.486-52.105-67.316-372.502-67.316-372.502h-171.525zM633.066 468.309c2.913-4.53 7.443-7.767 11.975-10.356 9.709-5.501 21.684-8.738 33.658-11.651l9.062-1.942c3.237-0.647 4.208-0.971 6.149-1.942 1.618-0.647 3.561-1.295 5.178-1.942 6.796-2.913 13.593-6.473 20.065-13.268 2.913-3.237 6.149-8.738 5.825-14.887-0.324-6.149-3.884-10.356-6.796-12.946-6.473-5.178-12.946-7.443-20.065-8.738 4.53 5.501 9.386 10.356 11.651 15.534 1.295 2.266 1.295 4.53 0.647 5.501-0.647 0.647-1.295 1.295-3.237 2.589-3.561 2.266-9.386 4.53-14.887 5.825l-4.208 1.295c-0.971 0.324-3.561 0.647-3.561 0.647-3.561 0.647-6.796 1.295-10.356 1.942-13.593 3.237-27.833 8.414-39.483 19.419-5.501 5.178-10.356 12.622-11.651 20.714-1.295 8.091 0.971 16.181 6.149 21.36-0.971-6.473 0.647-12.622 3.884-17.152zM849.901 465.396c-4.208-10.033-11.004-17.476-18.447-23.949 3.237 9.062 7.12 18.124 7.767 26.539 0.324 3.884-0.324 7.767-1.942 9.062-1.295 1.618-3.884 2.913-7.443 3.561-7.12 1.295-15.858 0.971-24.596-0.324l-6.473-0.971c-1.942-0.324-4.854-0.971-5.825-0.971-4.854-1.295-9.386-2.589-14.563-3.561-19.419-4.208-40.13-6.149-60.843 0-10.033 2.913-20.389 8.738-26.862 17.801-6.473 8.738-9.062 19.742-6.796 29.452 2.589-9.386 8.091-17.152 14.563-22.006 6.796-4.854 14.563-7.12 22.977-8.414 16.829-1.942 34.628 0.971 52.429 4.854 4.53 0.971 9.062 1.942 13.268 3.237 3.884 0.647 5.501 0.971 8.414 1.295 2.589 0.324 5.178 0.647 7.767 0.647 10.356 0 21.037 0.324 32.039-4.208 5.501-2.266 11.975-6.149 14.887-13.268 3.237-7.12 1.618-13.916-0.324-18.771z" p-id="2731" fill="#0996ef"></path><path d="M33.047 894.535h947.926v35.6h-947.926v-35.6z" p-id="2732" fill="#0996ef"></path></svg>