<?xml version="1.0" standalone="no"?><!DOCTYPE svg PUBLIC "-//W3C//DTD SVG 1.1//EN" "http://www.w3.org/Graphics/SVG/1.1/DTD/svg11.dtd"><svg t="1499759225836" class="icon" style="" viewBox="0 0 1024 1024" version="1.1" xmlns="http://www.w3.org/2000/svg" p-id="4430" xmlns:xlink="http://www.w3.org/1999/xlink" width="32" height="32"><defs><style type="text/css"></style></defs><path d="M965.665792 344.797184l0.002048-0.054272L750.948352 113.664 636.478464 113.664l-15.997952 0c0 0-0.044032 0.034816-0.10752 0.083968-9.490432 0.19968-17.262592 7.30624-18.512896 16.500736-0.043008 0.096256-0.069632 0.181248-0.078848 0.253952-4.549632 37.147648-44.147712 59.616256-92.322816 59.616256-48.156672 0-87.742464-22.452224-92.317696-59.573248-0.001024-0.01024-0.009216-0.024576-0.011264-0.034816-1.132544-9.473024-9.18016-16.821248-18.957312-16.825344-0.009216-0.007168-0.027648-0.021504-0.027648-0.021504l-11.136 0-4.569088 0L270.947328 113.664 56.080384 344.900608l0.003072 0.062464c-4.030464 4.524032-6.483968 10.484736-6.483968 17.020928 0 7.41376 3.154944 14.088192 8.192 18.762752l0.008192 0.178176 172.606464 159.181824 0 347.829248 0.037888 0.039936c-0.003072 0.15872-0.023552 0.31232-0.023552 0.472064 0 11.922432 9.536512 21.598208 21.395456 21.863424l0.023552 0.024576 228.352 0 61.510656 0 227.64032 0 0.01024-0.01024c0.068608 0.001024 0.135168 0.01024 0.203776 0.01024 11.982848 0 21.702656-9.631744 21.87264-21.574656l0.058368-0.057344L791.487488 540.106752l172.964864-159.511552 0.002048-0.064512c4.864-4.660224 7.897088-11.214848 7.897088-18.482176C972.351488 355.401728 969.818112 349.34784 965.665792 344.797184zM791.445504 492.78464l0-28.824576c0.013312-0.2816 0.043008-0.560128 0.043008-0.8448 0-9.631744-7.808-17.439744-17.439744-17.439744s-17.439744 7.808-17.439744 17.439744c0 0.142336 0.018432 0.280576 0.021504 0.421888l0 112.079872 0.043008 0 0 295.165952L756.673536 875.52 751.9232 875.52 599.658496 875.52l-57.955328 0-61.510656 0-30.036992 0L269.942784 875.52l-4.70528 0 0-4.70528c-0.00512-0.003072-0.009216-0.006144-0.014336-0.009216L265.223168 575.828992l0.270336 0L265.493504 464.173056c0.013312-0.2816 0.043008-0.560128 0.043008-0.8448 0-9.631744-7.808-17.439744-17.439744-17.439744s-17.439744 7.808-17.439744 17.439744c0 0.142336 0.018432 0.280576 0.021504 0.421888l0 29.244416L88.141824 361.544704 286.123008 148.48l99.60448 0c13.908992 44.814336 64.027648 77.99808 123.730944 77.99808 59.35104 0 109.233152-32.792576 123.48416-77.203456 0.29696-0.265216 0.605184-0.530432 0.893952-0.794624l101.935104 0 197.981184 213.064704L791.445504 492.78464z" p-id="4431" fill="#ef390b"></path></svg>