<?xml version="1.0" standalone="no"?><!DOCTYPE svg PUBLIC "-//W3C//DTD SVG 1.1//EN" "http://www.w3.org/Graphics/SVG/1.1/DTD/svg11.dtd"><svg t="1499759293502" class="icon" style="" viewBox="0 0 1024 1024" version="1.1" xmlns="http://www.w3.org/2000/svg" p-id="5252" xmlns:xlink="http://www.w3.org/1999/xlink" width="32" height="32"><defs><style type="text/css"></style></defs><path d="M512 204.8c-167.563636 0-307.2 139.636364-307.2 307.2 0 167.563636 139.636364 307.2 307.2 307.2 167.563636 0 307.2-139.636364 307.2-307.2 0-167.563636-139.636364-307.2-307.2-307.2zM512 153.6c9.309091 0 18.618182-9.309091 18.618182-18.618182V18.618182c0-9.309091-9.309091-18.618182-18.618182-18.618182s-18.618182 9.309091-18.618182 18.618182v116.363636c0 9.309091 9.309091 18.618182 18.618182 18.618182zM307.2 195.490909c4.654545 4.654545 9.309091 9.309091 13.963636 9.309091 4.654545 0 4.654545 0 9.309091-4.654545 9.309091-4.654545 13.963636-13.963636 9.309091-23.272728L279.272727 74.472727c-4.654545-9.309091-13.963636-9.309091-23.272727-4.654545s-13.963636 13.963636-4.654545 23.272727l55.854545 102.4zM195.490909 307.2L93.090909 251.345455c-9.309091-4.654545-18.618182 0-23.272727 4.654545-4.654545 9.309091-4.654545 18.618182 4.654545 23.272727l102.4 55.854546c4.654545 0 4.654545 4.654545 9.309091 4.654545s13.963636-4.654545 13.963637-9.309091c4.654545-4.654545 4.654545-18.618182-4.654546-23.272727zM153.6 512c0-9.309091-9.309091-18.618182-18.618182-18.618182H18.618182c-9.309091 0-18.618182 9.309091-18.618182 18.618182s9.309091 18.618182 18.618182 18.618182h116.363636c9.309091 0 18.618182-9.309091 18.618182-18.618182zM176.872727 684.218182L74.472727 744.727273c-9.309091 4.654545-9.309091 13.963636-4.654545 23.272727 4.654545 4.654545 9.309091 9.309091 13.963636 9.309091 4.654545 0 4.654545 0 9.309091-4.654546l102.4-55.854545c9.309091-4.654545 9.309091-13.963636 4.654546-23.272727s-13.963636-13.963636-23.272728-9.309091zM330.472727 823.854545c-9.309091-4.654545-18.618182 0-23.272727 4.654546L251.345455 930.909091c-4.654545 9.309091 0 18.618182 4.654545 23.272727 4.654545 0 4.654545 4.654545 9.309091 4.654546s13.963636-4.654545 13.963636-9.309091l55.854546-102.4c9.309091-9.309091 4.654545-18.618182-4.654546-23.272728zM512 870.4c-9.309091 0-18.618182 9.309091-18.618182 18.618182v116.363636c0 9.309091 9.309091 18.618182 18.618182 18.618182s18.618182-9.309091 18.618182-18.618182v-116.363636c0-9.309091-9.309091-18.618182-18.618182-18.618182zM716.8 828.509091c-4.654545-9.309091-13.963636-13.963636-23.272727-4.654546-9.309091 4.654545-13.963636 13.963636-4.654546 23.272728l55.854546 102.4c4.654545 4.654545 9.309091 9.309091 13.963636 9.309091 4.654545 0 4.654545 0 9.309091-4.654546 9.309091-4.654545 9.309091-13.963636 4.654545-23.272727l-55.854545-102.4zM949.527273 744.727273l-102.4-55.854546c-9.309091-4.654545-18.618182 0-23.272728 4.654546-4.654545 9.309091 0 18.618182 4.654546 23.272727l102.4 55.854545c4.654545 0 4.654545 4.654545 9.309091 4.654546s13.963636-4.654545 13.963636-9.309091c4.654545-9.309091 4.654545-18.618182-4.654545-23.272727zM1005.381818 493.381818h-116.363636c-9.309091 0-18.618182 9.309091-18.618182 18.618182s9.309091 18.618182 18.618182 18.618182h116.363636c9.309091 0 18.618182-9.309091 18.618182-18.618182s-9.309091-18.618182-18.618182-18.618182zM837.818182 339.781818c4.654545 0 4.654545 0 9.309091-4.654545L949.527273 279.272727c9.309091-4.654545 13.963636-13.963636 4.654545-23.272727-4.654545-9.309091-13.963636-13.963636-23.272727-4.654545l-102.4 55.854545c-9.309091 4.654545-13.963636 13.963636-4.654546 23.272727 4.654545 9.309091 9.309091 9.309091 13.963637 9.309091zM693.527273 200.145455c4.654545 0 4.654545 4.654545 9.309091 4.654545s13.963636-4.654545 13.963636-9.309091L772.654545 93.090909c4.654545-9.309091 0-18.618182-4.654545-23.272727-9.309091-4.654545-18.618182 0-23.272727 4.654545l-55.854546 102.4c-9.309091 9.309091-4.654545 18.618182 4.654546 23.272728z" p-id="5253" fill="#6d19ed"></path></svg>