<?xml version="1.0" standalone="no"?><!DOCTYPE svg PUBLIC "-//W3C//DTD SVG 1.1//EN" "http://www.w3.org/Graphics/SVG/1.1/DTD/svg11.dtd"><svg t="1499759322503" class="icon" style="" viewBox="0 0 1024 1024" version="1.1" xmlns="http://www.w3.org/2000/svg" p-id="6030" xmlns:xlink="http://www.w3.org/1999/xlink" width="32" height="32"><defs><style type="text/css"></style></defs><path d="M941.283 466.489c-3.413-14.791-17.635-40.619-74.411-46.99-7.282-0.797-14.222-1.479-20.935-2.162-47.218-4.779-67.357-8.192-77.369-22.755-14.563-21.277-31.858-49.607-40.163-63.374 0-15.474-7.851-33.337-22.983-51.997-2.503-3.072-5.12-6.144-7.965-9.216 5.575 0.91 11.378 1.251 17.181 1.251 62.237 0 112.981-50.631 112.981-112.981s-50.859-112.754-113.095-112.754-112.981 50.631-112.981 112.981c0 18.318 4.437 35.726 12.174 51.086-28.899-13.653-58.823-20.48-88.974-20.48-23.097 0-46.99 4.096-70.77 12.061-45.397 15.246-166.912 70.201-198.315 115.371-5.575 7.965-17.294 29.013-6.030 50.517 9.102 17.408 28.786 26.965 55.41 26.965 26.169 0 56.32-9.443 82.944-26.055 34.816-21.618 75.662-36.75 99.328-36.75 2.048 0 3.755 0.114 5.12 0.341-1.593 6.371-6.599 20.139-22.869 44.715-18.432 27.989-42.098 55.979-56.32 70.201s-27.989 33.223-37.547 52.11c-7.851 15.474-16.953 38.457-14.905 59.847 0.455 4.437 1.251 8.647 2.503 12.629-11.037 12.288-26.51 29.81-44.032 50.745-0.91 1.024-10.013 10.24-59.733 10.24-17.067 0-35.157-0.91-52.793-1.934-16.384-0.91-31.858-1.707-45.625-1.707-15.815 0-27.421 1.138-36.523 3.527-28.899 7.737-47.331 32.768-47.104 63.602 0.114 14.563 4.437 29.241 12.288 41.415 8.989 14.222 21.731 23.666 36.864 27.421 25.373 6.371 114.461 16.157 180.907 16.157 32.199 0 56.434-2.275 72.135-6.827 27.079-7.851 55.637-35.271 84.878-81.465 9.33-14.791 17.294-29.013 23.325-40.391 9.216 5.006 17.294 9.557 24.576 13.881 28.217 16.839 36.523 25.6 38.457 28.217 3.072 26.055-17.977 112.754-46.080 158.606-21.163 34.475-25.486 75.207-10.923 101.376 9.33 16.611 25.373 26.169 43.918 26.169 11.037 0 22.414-3.413 34.019-10.013 51.541-29.469 87.267-98.987 118.784-160.427l0.227-0.455c2.275-4.551 4.779-9.102 7.168-13.881 15.019-28.899 32.085-61.667 39.253-91.705 13.539-57.003-15.133-82.83-33.451-93.070-28.558-16.043-95.459-53.703-103.083-86.13-1.479-6.258-0.227-11.719 4.096-18.091 8.419-12.402 19.001-26.965 32.199-44.373 13.539 22.755 34.133 52.565 57.913 70.087 17.294 12.743 44.829 19.229 82.034 19.229 51.2 0 110.478-12.174 135.054-27.648 23.552-14.677 34.247-35.613 29.241-57.117zM656.157 158.379c0-32.199 26.169-58.368 58.368-58.368s58.368 26.169 58.368 58.368-26.169 58.368-58.368 58.368c-32.199 0-58.368-26.169-58.368-58.368zM547.499 537.145c13.198 55.751 88.747 98.304 129.479 121.173 6.713 3.755 12.743 10.809 6.713 34.361-5.006 19.683-16.839 44.259-34.133 77.597-2.503 4.779-5.006 9.557-7.282 14.109l-0.227 0.455c-28.103 54.613-59.847 116.509-97.28 137.899-1.707 0.91-3.072 1.593-4.21 2.048-2.048-7.509-0.91-24.69 10.695-43.691 15.474-25.259 30.606-62.805 41.529-103.083 6.485-24.121 16.611-68.722 11.378-96.256-3.186-16.498-16.498-31.971-43.463-50.062-21.504-14.563-52.11-31.403-105.699-58.141-11.947-6.030-23.211-11.605-31.63-16.157l-8.419-4.893c-0.569-13.881 15.019-45.739 36.864-67.584 16.839-16.839 43.122-48.014 63.829-79.531 30.265-46.194 38.685-77.141 27.307-100.011-12.629-25.145-40.277-28.899-55.523-28.899-34.361 0-83.399 17.294-128.114 45.056-17.067 10.581-35.613 16.953-51.2 17.749 12.629-11.719 36.067-27.079 66.901-43.463 32.541-17.294 71.339-34.589 96.483-43.008 18.205-6.144 36.181-9.216 53.362-9.216 29.355 0 58.823 9.102 87.267 27.193 27.875 17.635 43.349 33.337 51.314 43.349 5.12 6.485 7.851 11.264 9.102 14.222l-2.048 2.958c-6.599 8.647-17.522 22.301-27.193 34.361l-0.114 0.114c-25.373 31.63-60.075 74.979-83.741 110.137-12.971 19.229-16.953 39.822-11.947 61.213zM437.931 629.191c-5.12 9.671-11.833 21.618-19.57 33.792-30.72 48.355-49.038 56.775-54.045 58.254-6.030 1.707-21.39 4.665-56.889 4.665-64.398 0-147.229-9.443-167.595-14.45-2.617-0.683-7.737-7.509-7.737-16.384-0.114-7.851 3.413-9.443 6.713-10.354 2.389-0.683 8.419-1.707 22.301-1.707 12.288 0 27.079 0.797 42.781 1.593 18.205 1.024 37.091 1.934 55.637 1.934 35.726 0 79.645-3.413 101.717-29.923 16.27-19.456 30.834-36.067 41.643-48.014l35.043 20.594zM698.595 386.958c7.737 12.402 16.725 26.283 25.031 38.457 25.259 36.978 67.698 41.187 116.963 46.194 6.599 0.683 13.312 1.365 20.253 2.162 9.899 1.138 16.611 2.845 21.049 4.437-13.539 7.851-59.961 18.773-105.131 18.773-27.989 0-44.259-4.665-49.607-8.533-21.277-15.815-41.415-49.493-51.427-68.267l22.869-33.223z" p-id="6031" fill="#f4ea2a"></path></svg>